<svg version="1.2" xmlns="http://www.w3.org/2000/svg" viewBox="0 0 235 234" width="235" height="234">
	<title>codechemist-svg</title>
	<style>
		.s0 { fill: #ffffff;stroke: #000000;stroke-linecap: round;stroke-linejoin: round;stroke-width: .4 } 
		.s1 { fill: #ffffff;stroke: #ffffff;stroke-linecap: round;stroke-linejoin: round;stroke-width: .8 } 
		.s2 { fill: #ffffff } 
		.s3 { fill: #ffffff;stroke: #f7cd6f;stroke-linecap: round;stroke-linejoin: round;stroke-width: .4 } 
		.s4 { fill: #ffffff;stroke: #f7cd6f;stroke-linecap: round;stroke-linejoin: round;stroke-width: .8 } 
		.s5 { fill: #000000;stroke: #000000;stroke-linecap: round;stroke-linejoin: round;stroke-width: .8 } 
		.s6 { fill: none;stroke: #000000;stroke-linecap: round;stroke-linejoin: round;stroke-width: 2 } 
		.s7 { fill: #ffffff;stroke: #000000;stroke-linecap: round;stroke-linejoin: round;stroke-width: 2 } 
		.s8 { fill: #ffffff;stroke: #000000;stroke-miterlimit:10;stroke-width: 2 } 
	</style>
	<g id="Lager_2_00000148658052774479990580000011039780371233298085_">
		<path class="s0" d="m55.2 189.1l-1.2-1.2-1-1.3-0.3-1.4v-1.4l0.3-1.6 1.1-1.2 46.8-46.9 1.1-1.2 0.4-1.5v-1.7-20.6h28.9l0.4 22.4 0.4 1 0.7 1.5 1.5 1.4 45.7 46 0.8 1 0.4 0.7 0.2 1.8-0.2 1.6-2 2.6-10 7.8-10.8 5.7-13.4 5.2-10.8 2.7-10 1.3-11.2 0.3-10-1-8.6-1.5-6-1.7-5.4-2.1-5.4-2.3-5.8-2.9-6.2-3.7-6.9-4.9z"/>
	</g>
	<g id="Lager_4">
		<path class="s1" d="m102.6 108.9h29.3v-21l2.6-0.4 2.3-6.2h-38.7l1.8 5.7h2.3z"/>
		<path class="s2" d="m117.2 227.7l-22.6-2.4-28.2-10.1-17.2-11-14.2-13.5-11.1-14.7-8.1-15.6-5.6-15.9-1.5-8.9-1.5-16.1 0.5-12.6 2.6-15.5 3.8-12.2 7.8-16.5 11.4-16.2 12.6-12.6 16.9-11.9 13.3-6.4 15.6-5 19.2-2.8 18.4 0.5 21.1 4.5 18.8 7.9 16.2 10.6 14.6 13.9 10 13.3 8.3 15.7 6.5 20.4 2.3 18.9-0.4 15.1-3.3 18-6.7 18.1-7.5 13.3-12.7 15.8-17.6 14.9-12.6 7.4-14.8 6.1-27.1 5.2-0.6-10 11.5-1.4 17.5-4.9 17.4-8.3 15-11.8 11.7-12.9 10.3-16.8 6.7-18 3.2-22.2-1.7-22.3-7.2-22.7-10.4-17.7-13-14.4-16.5-12.3-23-10.1-22.4-3.8-22.7 1.3-18.5 5-11.9 5.5-17 11.6-13.7 14-8.2 11.8-8.6 19-3.7 14.6-1.4 17.7 2.3 20.8 7.4 21.5 10 16.6 12.7 14.1 14.7 11.2 13.4 7 16.7 5.5 18.6 2.6z"/>
		<path class="s1" d="m114.1 227.6l13.4-0.4-1.1-10.1-15.4 0.6"/>
		<path class="s1" d=""/>
	</g>
	<g id="Lager_3">
		<path class="s3" d="m66.7 168.8l7.9 4.4 10.2-2 6.5-6.5 1.1-10-4-8z"/>
		<path class="s4" d="m170.6 195.5l-6.4-1.2-6.3-8.6 0.6-8.7 7.4-7.2 2.7-0.7 12.8 13.7v4.5z"/>
		<path class="s5" d="m72.6 194.9l-0.4-4.6 4.1-4.3h5l3.9 4.2-0.6 5.7-4.6 3.2-5.4-1.3z"/>
	</g>
	<g id="_x30_">
		<g id="CIRCLE_00000114063999322553296040000005310620500259585440_">
			<path fill-rule="evenodd" class="s6" d="m117.2 217.7c-55.3 0-100-44.7-100-100 0-55.3 44.7-100 100-100 55.3 0 100 44.7 100 100 0 55.3-44.7 100-100 100z"/>
		</g>
		<g id="LINE_00000018199985632320050670000013961176456775438721_">
			<path class="s6" d="m100.7 134.1l-47 47.1"/>
		</g>
		<g id="LINE_00000110448732819281231680000010966203837467215753_">
			<path class="s6" d="m132.2 109.1v21.5"/>
		</g>
		<g id="ARC_00000095338158040216019410000011746078144805724858_">
			<path class="s6" d="m132.2 130.6c0 1.3 0.5 2.6 1.5 3.5"/>
		</g>
		<g id="LINE_00000106858468862472367290000006070998315141170304_">
			<path class="s6" d="m102.2 109.1v21.5"/>
		</g>
		<g id="ARC_00000147943001040928779090000011729382546969459604_">
			<path class="s6" d="m100.7 134.1c0.9-0.9 1.5-2.2 1.5-3.5"/>
		</g>
		<g id="LINE_00000078727576422685865620000016866786813459239606_">
			<path class="s6" d="m132.2 87.7h1.8"/>
		</g>
		<g id="ARC_00000087386937119411345370000008025573140444781979_">
			<path class="s6" d="m134 87.7c0.4 0 0.8-0.3 0.9-0.7"/>
		</g>
		<g id="LINE_00000109738872251092134580000003973167560870336674_">
			<path class="s6" d="m102.2 87.7h-1.8"/>
		</g>
		<g id="LINE_00000116938938897876756250000006528148139518035893_">
			<path class="s6" d="m117.2 80.7h18.6"/>
		</g>
		<g id="LINE_00000038396751331976077140000002875559514972070799_">
			<path class="s6" d="m117.2 80.7h-18.6"/>
		</g>
		<g id="ARC_00000132808372903732449430000009359998092976939403_">
			<path class="s6" d="m98.6 80.7c-0.5 0-1 0.4-1 1 0 0.1 0 0.2 0.1 0.3"/>
		</g>
		<g id="LINE_00000026869371457081867160000017877676831950772881_">
			<path class="s6" d="m97.7 82l1.8 5"/>
		</g>
		<g id="ARC_00000005255577889308619110000007168056197035744661_">
			<path class="s6" d="m99.5 87c0.1 0.4 0.5 0.7 0.9 0.7"/>
		</g>
		<g id="LINE_00000049201435312775953760000018047525817424975795_">
			<path class="s6" d="m134.9 87l1.8-5"/>
		</g>
		<g id="ARC_00000176025865513003840590000015939657647484743091_">
			<path class="s6" d="m136.7 82c0.2-0.5-0.1-1.1-0.6-1.3-0.1 0-0.2-0.1-0.3-0.1"/>
		</g>
		<g id="CIRCLE_00000078726671888804352330000015302128838149830576_">
			<path fill-rule="evenodd" class="s6" d="m117.2 227.7c-60.8 0-110-49.2-110-110 0-60.8 49.2-110 110-110 60.8 0 110 49.2 110 110 0 60.8-49.2 110-110 110z"/>
		</g>
		<g id="ARC_00000161594215428665547250000005904381151652816806_">
			<path class="s6" d="m53.9 188.5c36.1 32.3 90.6 32.3 126.7 0"/>
		</g>
		<g id="ARC_00000142154998987187007710000004707877802681598898_">
			<path class="s6" d="m180.5 188.5c2.1-1.8 2.2-5 0.4-7.1-0.1-0.1-0.1-0.1-0.2-0.2"/>
		</g>
		<g id="ARC_00000045608642137161814650000007254057207509108880_">
			<path class="s6" d="m53.7 181.2c-2 2-2 5.1 0 7.1 0.1 0.1 0.1 0.1 0.2 0.2"/>
		</g>
		<g id="LINE_00000116213016386132399580000006383387855638105247_">
			<path class="s6" d="m102.2 109.1h30"/>
		</g>
		<g id="ARC_00000176727658044403947230000004514058973485340553_">
			<path class="s6" d="m66.4 168.4c6 6 15.6 6 21.6 0 6-6 6-15.6 0-21.6"/>
		</g>
		<g id="CIRCLE_00000074414309926983337770000013536598750352984992_">
			<path class="s7" d="m78.8 198.9c-3.6 0-6.6-3-6.6-6.6 0-3.6 3-6.6 6.6-6.6 3.6 0 6.6 3 6.6 6.6 0 3.6-3 6.6-6.6 6.6z"/>
		</g>
		<g id="CIRCLE_00000165932124444420920030000016009887673415513751_">
			<path class="s7" d="m108.7 143.9c-2.4 0-4.4-2-4.4-4.4 0-2.4 2-4.4 4.4-4.4 2.4 0 4.4 2 4.4 4.4 0 2.4-2 4.4-4.4 4.4z"/>
		</g>
		<g id="CIRCLE_00000138537967098756565360000004919532511996488097_">
			<path class="s7" d="m117.1 178c-5 0-9-4-9-9 0-5 4-9 9-9 5 0 9 4 9 9 0 5-4 9-9 9z"/>
		</g>
		<g id="ARC_00000056400037845536270230000009188366706716951208_">
			<path class="s7" d="m168.9 169.4c-7.2 1.2-12 8-10.8 15.2 1.1 6.5 6.9 11.2 13.5 11"/>
		</g>
		<g id="CIRCLE_00000026153708874081606320000008959925094177214113_">
			<path class="s7" d="m135.4 157.2c-3.3 0-5.9-2.6-5.9-5.9 0-3.3 2.6-5.9 5.9-5.9 3.3 0 5.9 2.6 5.9 5.9 0 3.3-2.6 5.9-5.9 5.9z"/>
		</g>
		<g id="CIRCLE_00000074434020051899260660000004646050094134528932_">
			<path class="s7" d="m125.1 203.7c-4 0-7.3-3.3-7.3-7.3 0-4 3.3-7.3 7.3-7.3 4 0 7.3 3.3 7.3 7.3 0 4-3.3 7.3-7.3 7.3z"/>
		</g>
		<g id="LINE_00000071542916886375840870000009408270937066431124_">
			<path class="s6" d="m133.7 134.1l47 47.1"/>
		</g>
		<g id="LINE_00000178883320327605993180000002545089969663476654_">
			<path class="s6" d="m132.2 109.1v-21.4"/>
		</g>
		<g id="LINE_00000008130190721997009450000016245720023539294129_">
			<path class="s6" d="m102.2 109.1v-21.4"/>
		</g>
	</g>
	<g>
		<path fill-rule="evenodd" class="s8" d="m114.1 49.6c0.5 3.3 0.2 6.4-0.8 9.2q-1.5 4.2-5.1 6.9c-2.3 1.8-5.1 3-8.2 3.4q-4.6 0.8-8.7-0.9c-2.7-1-5-2.7-6.8-5-1.8-2.3-2.9-5.1-3.4-8.3-0.5-3.3-0.2-6.5 0.8-9.3 1-2.9 2.7-5.2 5.1-7.1 2.3-1.8 5.2-3 8.4-3.5 3.1-0.5 6.1-0.2 8.7 0.9q4.1 1.5 6.6 5.1c1.8 2.4 2.9 5.3 3.4 8.6zm-10.4 1.8c-0.4-2.7-1.2-4.8-2.5-6.2-1.3-1.4-2.8-2-4.6-1.7-2 0.3-3.4 1.3-4.3 2.9-0.9 1.7-1.1 3.9-0.7 6.6 0.4 2.7 1.2 4.7 2.6 6 1.3 1.3 2.9 1.9 4.8 1.6 1.1-0.2 2.1-0.7 2.9-1.5 0.8-0.8 1.4-1.9 1.7-3.2 0.3-1.3 0.3-2.8 0.1-4.5z"/>
	</g>
	<g>
		<path fill-rule="evenodd" class="s8" d="m156.9 57c-0.7 3.3-2 6.1-3.9 8.3-1.9 2.2-4.3 3.8-7.1 4.6-2.9 0.8-6 0.9-9.3 0.2l-13.8-2.9 6.8-32.5 13.5 2.8q17.1 3.6 13.8 19.5zm-10.4-2.1c0.3-1.6 0.3-3.1-0.1-4.5-0.4-1.4-1.1-2.6-2.1-3.5-1-0.9-2.4-1.6-4-1.9l-2.5-0.5-3.6 17.2 2.7 0.6c2.3 0.5 4.4 0.1 6.1-1.2 1.8-1.5 2.9-3.5 3.5-6.2z"/>
	</g>
	<g>
		<path class="s8" d="m157 76.7l15.9-29.1 18.1 9.9-3.8 6.9-9.4-5.1-2.3 4.2 8.8 4.8-3.8 6.9-8.8-4.8-2.3 4.3 10 5.5-3.8 6.9z"/>
	</g>
	<g>
		<path class="s8" d="m78.8 71.6q-3 3.2-7.8 5.7c-3.1 1.6-6.2 2.4-9.1 2.4-2.9 0-5.5-0.8-7.9-2.4-2.3-1.6-4.3-3.8-5.8-6.7-1.6-3.1-2.4-6.2-2.3-9.3 0.1-3.1 1-6 2.8-8.6 1.8-2.6 4.3-4.7 7.4-6.4 2.6-1.3 5.2-2.3 7.9-2.9l4.2 8.2c-1.1-0.1-2.3 0.1-3.5 0.4-1.3 0.3-2.5 0.8-3.7 1.4-2.4 1.2-4 2.9-4.6 5-0.7 2.1-0.4 4.3 0.8 6.7 1.2 2.4 2.9 3.9 5 4.5 2.1 0.6 4.3 0.4 6.6-0.8 2.2-1.1 4-2.8 5.7-5z"/>
	</g>
</svg>